<svg width="25" height="29" viewBox="0 0 25 29" fill="none" xmlns="http://www.w3.org/2000/svg">
<g clip-path="url(#clip0_88_23878)">
<path d="M21.1729 22.1005C19.6113 21.2117 17.9996 20.4139 16.346 19.7111C15.8653 19.2303 14.9037 18.2688 14.9037 17.3072V16.3457H10.096V17.3072C10.096 18.2688 9.13452 19.2303 8.65375 19.7111C8.65375 19.7111 5.18742 21.1678 3.84608 22.062C2.80892 22.7515 1.95969 23.6883 1.37494 24.788C0.787804 25.8888 0.480693 27.1172 0.480713 28.3649H24.5191C24.5207 27.1258 24.2161 25.9056 23.6323 24.8127C23.0485 23.7198 22.2037 22.7881 21.1729 22.1005Z" fill="#FFD5C5"/>
<path d="M10.0959 16.3457V17.3072C10.0869 17.5896 10.0164 17.8666 9.88916 18.1188C11.5667 18.7804 13.4328 18.7804 15.1103 18.1188C14.9831 17.8666 14.9125 17.5896 14.9036 17.3072V16.3457H10.0959Z" fill="#F4A490"/>
<path d="M7.21106 6.25V13.2586C7.21106 15.686 9.57884 17.6538 12.4995 17.6538C15.4202 17.6538 17.7879 15.686 17.7879 13.2586V6.25H7.21106Z" fill="#FFD5C5"/>
<path d="M16.346 19.7109C17.9996 20.4138 19.6113 21.2116 21.1729 22.1003C22.2037 22.7879 23.0485 23.7196 23.6323 24.8125C24.2161 25.9054 24.5207 27.1257 24.5191 28.3647H0.480713C0.480693 27.1171 0.787804 25.8887 1.37494 24.7878C1.95969 23.6882 2.80892 22.7514 3.84608 22.0619C5.18742 21.1677 8.65375 19.7109 8.65375 19.7109L11.8667 22.5225C12.042 22.6758 12.267 22.7604 12.4999 22.7604C12.7328 22.7604 12.9578 22.6758 13.1331 22.5225L16.346 19.7109Z" fill="#032E1C"/>
<path d="M17.7885 12.9804C18.2985 12.9804 18.7877 12.7778 19.1483 12.4172C19.509 12.0565 19.7116 11.5674 19.7116 11.0573C19.7116 10.5473 19.509 10.0582 19.1483 9.69753C18.7877 9.33689 18.2985 9.13428 17.7885 9.13428V12.9804ZM7.21164 12.9804C6.70161 12.9804 6.21247 12.7778 5.85183 12.4172C5.49118 12.0565 5.28857 11.5674 5.28857 11.0573C5.28857 10.5473 5.49118 10.0582 5.85183 9.69753C6.21247 9.33689 6.70161 9.13428 7.21164 9.13428V12.9804Z" fill="#F4A490"/>
<path d="M12.5001 0.479981C12.0369 0.479891 11.5742 0.51202 11.1155 0.576134C7.79337 1.05209 5.28857 3.20593 5.28857 5.78765V11.0568L10.577 7.69148C10.577 7.69148 15.8654 11.0568 19.7116 11.0568V5.78765C19.7116 2.85497 16.4808 0.479981 12.5001 0.479981Z" fill="#042E1C"/>
<path d="M16.258 12.4215C16.3353 12.3215 16.3702 12.1951 16.355 12.0697C16.3398 11.9442 16.2759 11.8298 16.177 11.7511C16.0781 11.6724 15.9522 11.6359 15.8266 11.6493C15.7009 11.6627 15.5856 11.7251 15.5056 11.8229C15.4332 11.914 15.3405 11.9869 15.2349 12.0358C15.1294 12.0847 15.0138 12.1082 14.8975 12.1044C14.7812 12.1006 14.6674 12.0696 14.5652 12.014C14.463 11.9584 14.3753 11.8796 14.309 11.784C14.2646 11.7381 14.2116 11.7014 14.1529 11.6762C14.0943 11.651 14.0312 11.6378 13.9673 11.6372C13.9035 11.6367 13.8402 11.6488 13.7811 11.673C13.722 11.6972 13.6684 11.7329 13.6232 11.778C13.5781 11.8232 13.5424 11.8768 13.5182 11.9359C13.494 11.995 13.4819 12.0583 13.4824 12.1222C13.483 12.186 13.4962 12.2491 13.5214 12.3077C13.5466 12.3664 13.5833 12.4194 13.6292 12.4638C13.9662 12.8343 14.4366 13.0558 14.9369 13.0796C15.1898 13.0634 15.4369 12.9968 15.6638 12.8838C15.8907 12.7707 16.0927 12.6136 16.258 12.4215ZM11.408 12.4215C11.4847 12.3215 11.519 12.1955 11.5037 12.0705C11.4884 11.9454 11.4246 11.8314 11.3261 11.7529C11.2275 11.6745 11.1022 11.6378 10.9769 11.6508C10.8516 11.6638 10.7364 11.7254 10.6561 11.8224C10.5828 11.912 10.4898 11.9835 10.3844 12.0313C10.279 12.0792 10.164 12.1021 10.0483 12.0984C9.93261 12.0947 9.81933 12.0644 9.71722 12.0099C9.61511 11.9553 9.52693 11.8781 9.45948 11.784C9.4153 11.7385 9.36246 11.7024 9.30408 11.6777C9.2457 11.6531 9.18296 11.6404 9.11958 11.6404C9.0562 11.6404 8.99346 11.6531 8.93508 11.6777C8.8767 11.7024 8.82386 11.7385 8.77968 11.784C8.68955 11.8741 8.63892 11.9964 8.63892 12.1239C8.63892 12.2514 8.68955 12.3736 8.77968 12.4638C8.94644 12.6473 9.14772 12.7961 9.37201 12.9018C9.59631 13.0074 9.83922 13.0679 10.0869 13.0796C10.3399 13.0635 10.587 12.997 10.8139 12.884C11.0408 12.771 11.2428 12.6137 11.408 12.4215ZM13.1248 14.3484C12.9589 14.5106 12.7363 14.6019 12.5042 14.6028C12.2721 14.6037 12.0488 14.5142 11.8816 14.3532C11.8382 14.3066 11.7858 14.2694 11.7275 14.2439C11.6692 14.2183 11.6064 14.2048 11.5427 14.2044C11.4791 14.2039 11.416 14.2165 11.3574 14.2412C11.2988 14.266 11.2458 14.3025 11.2018 14.3484C11.1122 14.4385 11.0615 14.5602 11.0606 14.6873C11.0597 14.8144 11.1086 14.9368 11.197 15.0282C11.3673 15.1998 11.5699 15.3361 11.7931 15.4293C12.0162 15.5225 12.2556 15.5707 12.4974 15.5711C12.7392 15.5716 12.9788 15.5243 13.2023 15.4319C13.4258 15.3396 13.6289 15.204 13.7998 15.033C13.8906 14.9435 13.9421 14.8216 13.943 14.6941C13.9439 14.5666 13.8941 14.444 13.8047 14.3532C13.7608 14.3074 13.7083 14.2708 13.65 14.2457C13.5918 14.2206 13.5292 14.2074 13.4658 14.207C13.4024 14.2065 13.3395 14.2188 13.281 14.2431C13.2224 14.2674 13.1693 14.3032 13.1248 14.3484Z" fill="#F4A490"/>
<path d="M5.28807 28.3649V26.4418C5.28807 26.3143 5.23742 26.192 5.14726 26.1018C5.0571 26.0117 4.93481 25.961 4.8073 25.961C4.6798 25.961 4.55751 26.0117 4.46735 26.1018C4.37719 26.192 4.32654 26.3143 4.32654 26.4418V28.3649H5.28807ZM20.6726 28.3649V26.4418C20.6726 26.3143 20.622 26.192 20.5318 26.1018C20.4416 26.0117 20.3194 25.961 20.1918 25.961C20.0643 25.961 19.942 26.0117 19.8519 26.1018C19.7617 26.192 19.7111 26.3143 19.7111 26.4418V28.3649H20.6726ZM6.8222 20.5192L8.20633 24.2173L9.1068 23.8807L7.70104 20.1245C7.43902 20.2399 7.14095 20.3735 6.8222 20.5192ZM17.2947 20.1327L15.8923 23.8803L16.7928 24.2168L18.1712 20.5341C17.8539 20.3865 17.5563 20.2505 17.2947 20.1327Z" fill="#1FCB60"/>
<path d="M14.9795 22.5956L13.9968 21.4899C13.9037 21.3843 13.7892 21.2997 13.6609 21.2416C13.5326 21.1836 13.3934 21.1535 13.2526 21.1533H11.6906C11.5498 21.1535 11.4106 21.1836 11.2823 21.2416C11.154 21.2997 11.0395 21.3843 10.9464 21.4899L9.9637 22.5956H9.01851C8.7547 22.5956 8.50169 22.7004 8.31515 22.887C8.1286 23.0735 8.0238 23.3265 8.0238 23.5903V27.3701C8.0238 27.6339 8.1286 27.8869 8.31515 28.0735C8.50169 28.26 8.7547 28.3648 9.01851 28.3648H15.981C16.2448 28.3648 16.4978 28.26 16.6843 28.0735C16.8709 27.8869 16.9757 27.6339 16.9757 27.3701V23.5903C16.9757 23.3265 16.8709 23.0735 16.6843 22.887C16.4978 22.7004 16.2448 22.5956 15.981 22.5956H14.9795Z" fill="#414042"/>
<path d="M12.4999 26.9227C13.2965 26.9227 13.9422 26.2769 13.9422 25.4804C13.9422 24.6838 13.2965 24.0381 12.4999 24.0381C11.7034 24.0381 11.0576 24.6838 11.0576 25.4804C11.0576 26.2769 11.7034 26.9227 12.4999 26.9227Z" fill="white"/>
<path d="M9.61504 24.5192C9.88056 24.5192 10.0958 24.3039 10.0958 24.0384C10.0958 23.7729 9.88056 23.5576 9.61504 23.5576C9.34952 23.5576 9.13428 23.7729 9.13428 24.0384C9.13428 24.3039 9.34952 24.5192 9.61504 24.5192Z" fill="white"/>
</g>
<defs>
<clipPath id="clip0_88_23878">
<rect width="24.9999" height="28.3652" fill="white"/>
</clipPath>
</defs>
</svg>
