<svg width="32" height="27" viewBox="0 0 32 27" fill="none" xmlns="http://www.w3.org/2000/svg">
<g clip-path="url(#clip0_88_23904)">
<path d="M30.1751 2.50401L24.9751 5.09854V-0.115234L30.1751 2.50401Z" fill="#EF5354"/>
<path d="M24.9751 17.4044C24.7751 17.4044 24.6001 17.2314 24.6001 17.0338V-0.510212C24.6001 -0.707891 24.7751 -0.880859 24.9751 -0.880859C25.1751 -0.880859 25.3501 -0.707891 25.3501 -0.510212V17.0338C25.3501 17.2314 25.1751 17.4044 24.9751 17.4044Z" fill="#979EA7"/>
<path d="M28.1502 18.6399L24.9752 27.486H16.1752H1.8252V19.5541C1.8252 18.0221 3.0752 16.7866 4.6252 16.7866H16.9252C18.4752 16.7866 19.7252 18.0221 19.7252 19.5541L20.1002 23.2853L20.1502 23.656L20.2002 24.0266L20.3502 23.7054L23.5002 16.7866L28.1502 18.6399Z" fill="#032E1C"/>
<path d="M10.0499 0.996582H11.4999C14.3249 0.996582 16.6499 3.26989 16.6499 6.0621V8.01417H4.8999V6.08681C4.8999 3.2946 7.1999 0.996582 10.0499 0.996582Z" fill="#042E1C"/>
<path d="M8.1748 14.6367V17.5772C8.2248 18.9856 9.3998 20.0976 10.8248 20.0482C12.1748 19.9988 13.2748 18.9362 13.3248 17.5772V14.6367H8.1748Z" fill="#EEA7A0"/>
<path d="M10.75 16.5642C8.325 16.5642 6.375 14.6368 6.375 12.24V8.38525H15.125V12.2647C15.15 14.6368 13.175 16.5642 10.75 16.5642C10.775 16.5642 10.775 16.5642 10.75 16.5642Z" fill="#FFC9C2"/>
<path d="M8.8252 11.4738C8.6252 11.4738 8.4502 11.3008 8.4502 11.1031V10.4854C8.4502 10.2877 8.6252 10.1147 8.8252 10.1147C9.0252 10.1147 9.2002 10.2877 9.2002 10.4854V11.1031C9.2002 11.3008 9.0252 11.4738 8.8252 11.4738ZM12.7002 11.4738C12.5002 11.4738 12.3252 11.3008 12.3252 11.1031V10.4854C12.3252 10.2877 12.5002 10.1147 12.7002 10.1147C12.9002 10.1147 13.0752 10.2877 13.0752 10.4854V11.1031C13.0752 11.3008 12.9002 11.4738 12.7002 11.4738Z" fill="#A86531"/>
<path d="M5.0752 10.3619V10.6337C5.0752 11.3503 5.6752 11.9433 6.4002 11.9433V9.05225C5.6502 9.05225 5.0752 9.64528 5.0752 10.3619ZM15.1252 9.05225V11.9433C15.8502 11.9433 16.4502 11.3503 16.4502 10.6337V10.3619C16.4502 9.64528 15.8752 9.05225 15.1252 9.05225Z" fill="#EEA7A0"/>
<path d="M5.0752 9.71961C4.6002 9.71961 4.2002 9.34896 4.2002 8.85477C4.2002 8.48412 4.4502 8.13818 4.8002 8.03934C8.6752 6.72972 12.8752 6.72972 16.7502 8.03934C17.2252 8.16289 17.4752 8.65709 17.3502 9.10187C17.2252 9.57135 16.7252 9.81845 16.2752 9.6949C16.2502 9.6949 16.2252 9.67019 16.2002 9.67019C12.7002 8.48412 8.8752 8.48412 5.3752 9.67019C5.2502 9.6949 5.1502 9.71961 5.0752 9.71961Z" fill="#1FCB60"/>
<path d="M6.1001 22.9883V27.5102H5.3501V22.9883C5.3501 22.7906 5.5251 22.6177 5.7251 22.6177C5.9251 22.6177 6.1001 22.7906 6.1001 22.9883ZM16.1751 22.9883V27.5102H15.4251V22.9883C15.4251 22.7906 15.6001 22.6177 15.8001 22.6177C16.0001 22.6177 16.1751 22.7906 16.1751 22.9883Z" fill="#09633C"/>
<path d="M23.85 15.5514L23.5 16.7869L28.175 18.6401L28.8 17.3799C29.45 16.0703 28.925 14.5136 27.6 13.8711C27.475 13.797 27.325 13.7476 27.2 13.7229C25.8 13.3028 24.3 14.0688 23.875 15.4526C23.85 15.4773 23.85 15.502 23.85 15.5514Z" fill="#FED7D2"/>
<path d="M20.1501 24.0268L19.3501 25.9542C19.3001 26.1024 19.1501 26.1766 19.0001 26.1766C18.9501 26.1766 18.9001 26.1766 18.8501 26.1519C18.6501 26.0777 18.5751 25.8553 18.6501 25.6577L19.5751 23.4832C19.6501 23.2855 19.8751 23.2114 20.0501 23.2855C20.0501 23.2855 20.0501 23.2855 20.0751 23.2855H20.1001L20.1501 23.6562V24.0268Z" fill="#09633C"/>
</g>
<defs>
<clipPath id="clip0_88_23904">
<rect width="32" height="27" fill="white"/>
</clipPath>
</defs>
</svg>
