<svg width="119" height="40" viewBox="0 0 119 40" fill="none" xmlns="http://www.w3.org/2000/svg">
<path d="M11.8258 11.5588C18.0214 11.5588 22.8004 17.4944 22.8004 24.4875C22.8002 31.4805 18.0212 37.4153 11.8258 37.4153C5.6305 37.4151 0.852394 31.4804 0.852173 24.4875C0.852173 17.4945 5.63036 11.559 11.8258 11.5588Z" fill="white" stroke="#032E1C" stroke-width="1.70376"/>
<path d="M38.6714 11.5588C44.867 11.5588 49.646 17.4944 49.646 24.4875C49.6458 31.4805 44.8668 37.4153 38.6714 37.4153C32.4761 37.4151 27.698 31.4804 27.6978 24.4875C27.6978 17.4945 32.4759 11.559 38.6714 11.5588Z" fill="white" stroke="#032E1C" stroke-width="1.70376"/>
<path d="M5.27328 17.3708C7.22222 16.9986 9.16223 17.6977 10.662 19.0225C12.1618 20.3473 13.218 22.2948 13.3998 24.409C13.7639 28.6462 11.2602 32.2936 7.82978 32.5791C5.305 32.5788 3.67714 31.8507 2.63356 30.6009C1.58839 29.3491 1.12162 27.5665 0.938758 25.4437C0.938758 22.6097 1.14425 20.7911 1.78667 19.5815C2.42555 18.3788 3.50122 17.7694 5.27222 17.3699L5.27328 17.3708Z" fill="#032E1C" stroke="#032E1C" stroke-width="0.100221"/>
<path d="M32.6475 17.3708C34.5965 16.9986 36.5365 17.6977 38.0362 19.0225C39.5361 20.3473 40.5923 22.2948 40.774 24.409C41.1381 28.6462 38.6344 32.2936 35.204 32.5791C32.6793 32.5788 31.0514 31.8507 30.0078 30.6009C28.9619 29.3482 28.4952 27.5636 28.3126 25.4388C28.1302 23.316 28.3568 21.3669 29.0573 19.9154C29.7129 18.5569 30.7835 17.6338 32.3272 17.4071L32.6417 17.3713L32.6475 17.3708Z" fill="#032E1C" stroke="#032E1C" stroke-width="0.100221"/>
<path d="M7.61682 4.89387C7.61682 4.89387 12.1789 2.28071 15.3711 2.88858C18.5632 3.49644 22.199 7.3994 22.199 7.3994" stroke="#032E1C" stroke-width="2.19141" stroke-linecap="round"/>
<path d="M34.1803 4.8863C34.1803 4.8863 38.7424 2.27315 41.9345 2.88101C45.1267 3.48887 48.7625 7.39183 48.7625 7.39183" stroke="#032E1C" stroke-width="2.19141" stroke-linecap="round"/>
<path d="M69.8156 19.5372V5.77771H71.9094V19.5372H69.8156ZM60.8421 19.5372V5.77771H62.9359V19.5372H60.8421ZM61.8391 13.4351V11.5208H70.9124V13.4351H61.8391Z" fill="#032E1C"/>
<path d="M73.8253 19.5372V8.9683H76.1385V19.5372H73.8253ZM74.9819 7.63224C74.6097 7.63224 74.2906 7.51259 74.0248 7.2733C73.7722 7.02071 73.6459 6.70165 73.6459 6.31612C73.6459 5.904 73.7722 5.58494 74.0248 5.35894C74.2906 5.11965 74.6097 5 74.9819 5C75.3542 5 75.6666 5.11965 75.9192 5.35894C76.1851 5.58494 76.318 5.904 76.318 6.31612C76.318 6.70165 76.1851 7.02071 75.9192 7.2733C75.6666 7.51259 75.3542 7.63224 74.9819 7.63224Z" fill="#032E1C"/>
<path d="M81.4286 19.7565C80.6176 19.7565 79.8997 19.5372 79.2749 19.0984C78.6501 18.6597 78.1582 18.0283 77.7993 17.204C77.4536 16.3798 77.2808 15.396 77.2808 14.2527C77.2808 13.0961 77.4536 12.1124 77.7993 11.3014C78.1582 10.4772 78.6501 9.84572 79.2749 9.40701C79.8997 8.9683 80.6176 8.74895 81.4286 8.74895C82.532 8.74895 83.416 9.15442 84.0807 9.96536C84.7455 10.7763 85.0778 11.9263 85.0778 13.4152V15.0903C85.0778 16.5792 84.7455 17.7291 84.0807 18.5401C83.416 19.351 82.532 19.7565 81.4286 19.7565ZM82.1664 17.7026C82.9109 17.7026 83.5091 17.4234 83.9611 16.865C84.4264 16.3067 84.659 15.4359 84.659 14.2527C84.659 13.0695 84.4264 12.1988 83.9611 11.6404C83.5091 11.0821 82.9109 10.8029 82.1664 10.8029C81.4219 10.8029 80.817 11.0821 80.3517 11.6404C79.8997 12.1988 79.6737 13.0695 79.6737 14.2527C79.6737 15.4359 79.8997 16.3067 80.3517 16.865C80.817 17.4234 81.4219 17.7026 82.1664 17.7026ZM84.5394 19.5372V16.9847L84.8585 14.2527L84.5394 11.5607V5.27918H86.8526V19.5372H84.5394Z" fill="#032E1C"/>
<path d="M92.14 19.7565C91.329 19.7565 90.6111 19.5372 89.9863 19.0984C89.3615 18.6597 88.8696 18.0283 88.5107 17.204C88.165 16.3798 87.9922 15.396 87.9922 14.2527C87.9922 13.0961 88.165 12.1124 88.5107 11.3014C88.8696 10.4772 89.3615 9.84572 89.9863 9.40701C90.6111 8.9683 91.329 8.74895 92.14 8.74895C93.2434 8.74895 94.1274 9.15442 94.7921 9.96536C95.4569 10.7763 95.7892 11.9263 95.7892 13.4152V15.0903C95.7892 16.5792 95.4569 17.7291 94.7921 18.5401C94.1274 19.351 93.2434 19.7565 92.14 19.7565ZM92.8778 17.7026C93.6223 17.7026 94.2205 17.4234 94.6725 16.865C95.1378 16.3067 95.3704 15.4359 95.3704 14.2527C95.3704 13.0695 95.1378 12.1988 94.6725 11.6404C94.2205 11.0821 93.6223 10.8029 92.8778 10.8029C92.1333 10.8029 91.5284 11.0821 91.0631 11.6404C90.6111 12.1988 90.3851 13.0695 90.3851 14.2527C90.3851 15.4359 90.6111 16.3067 91.0631 16.865C91.5284 17.4234 92.1333 17.7026 92.8778 17.7026ZM95.2508 19.5372V16.9847L95.5699 14.2527L95.2508 11.5607V5.27918H97.564V19.5372H95.2508Z" fill="#032E1C"/>
<path d="M103.609 19.7565C102.625 19.7565 101.761 19.5305 101.017 19.0785C100.286 18.6265 99.7139 17.9884 99.3018 17.1641C98.8897 16.3266 98.6836 15.3561 98.6836 14.2527C98.6836 13.1094 98.8897 12.1257 99.3018 11.3014C99.7272 10.4772 100.306 9.84572 101.037 9.40701C101.781 8.9683 102.632 8.74895 103.589 8.74895C104.533 8.74895 105.364 8.9683 106.082 9.40701C106.8 9.84572 107.358 10.4772 107.757 11.3014C108.169 12.1257 108.375 13.1094 108.375 14.2527C108.375 14.3724 108.375 14.4854 108.375 14.5917C108.375 14.6981 108.368 14.831 108.355 14.9906H100.319V13.2756H106.64L105.982 14.2527C105.982 12.9898 105.769 12.0858 105.344 11.5407C104.919 10.9957 104.334 10.7231 103.589 10.7231C102.831 10.7231 102.22 11.0023 101.755 11.5607C101.303 12.1057 101.077 13.0031 101.077 14.2527C101.077 15.4226 101.303 16.2867 101.755 16.8451C102.22 17.3901 102.858 17.6627 103.669 17.6627C104.201 17.6627 104.659 17.543 105.045 17.3037C105.43 17.0644 105.73 16.6723 105.942 16.1272L108.136 16.865C107.817 17.769 107.258 18.4803 106.461 18.9987C105.676 19.5039 104.726 19.7565 103.609 19.7565Z" fill="#032E1C"/>
<path d="M116.265 19.5372V13.4152C116.265 12.5511 116.046 11.8997 115.607 11.461C115.182 11.009 114.657 10.783 114.032 10.783C113.407 10.783 112.875 11.009 112.436 11.461C112.011 11.8997 111.798 12.5511 111.798 13.4152H111.2C111.2 12.4447 111.36 11.6138 111.679 10.9225C111.998 10.218 112.443 9.67954 113.015 9.3073C113.586 8.93507 114.231 8.74895 114.949 8.74895C115.667 8.74895 116.298 8.91513 116.843 9.24748C117.388 9.57983 117.814 10.0584 118.12 10.6832C118.425 11.3081 118.578 12.0459 118.578 12.8967V19.5372H116.265ZM109.485 19.5372V8.9683H111.798V19.5372H109.485Z" fill="#032E1C"/>
<path d="M66.0268 36.3802C64.9101 36.3802 63.913 36.0944 63.0356 35.5227C62.1582 34.9511 61.4669 34.1401 60.9617 33.0899C60.4698 32.0264 60.2239 30.7634 60.2239 29.301C60.2239 27.8254 60.4898 26.5625 61.0215 25.5122C61.5666 24.4487 62.3177 23.6377 63.2749 23.0794C64.2454 22.5077 65.3621 22.2219 66.625 22.2219C67.5689 22.2219 68.4131 22.3881 69.1575 22.7204C69.9153 23.0395 70.5534 23.5114 71.0719 24.1363C71.6037 24.7478 71.9759 25.4856 72.1886 26.3497L70.1147 26.9081C69.9153 26.0174 69.5098 25.3394 68.8983 24.8741C68.3001 24.3955 67.5224 24.1562 66.5652 24.1562C65.3155 24.1562 64.3052 24.5883 63.5341 25.4524C62.7764 26.3032 62.3975 27.5861 62.3975 29.301C62.3975 30.9495 62.7564 32.2191 63.4743 33.1098C64.1922 34.0005 65.156 34.4459 66.3658 34.4459C67.1634 34.4459 67.8481 34.2797 68.4197 33.9474C68.9914 33.615 69.4234 33.1696 69.7159 32.6113C70.0217 32.0396 70.1745 31.4015 70.1745 30.6969H70.9722C70.9722 31.694 70.7861 32.6246 70.4138 33.4887C70.0416 34.3528 69.4833 35.0508 68.7388 35.5825C68.0076 36.1143 67.1036 36.3802 66.0268 36.3802ZM70.354 36.1808L70.1745 31.9133V29.2013H72.1886V36.1808H70.354ZM66.306 30.9163V29.2013H71.1916V30.9163H66.306Z" fill="#032E1C"/>
<path d="M78.6117 36.4001C77.6279 36.4001 76.7638 36.1741 76.0194 35.7221C75.2882 35.2701 74.7165 34.632 74.3044 33.8078C73.8923 32.9702 73.6862 31.9998 73.6862 30.8963C73.6862 29.753 73.8923 28.7693 74.3044 27.945C74.7298 27.1208 75.3081 26.4893 76.0393 26.0506C76.7838 25.6119 77.6346 25.3926 78.5918 25.3926C79.5357 25.3926 80.3665 25.6119 81.0844 26.0506C81.8023 26.4893 82.3607 27.1208 82.7595 27.945C83.1716 28.7693 83.3777 29.753 83.3777 30.8963C83.3777 31.016 83.3777 31.129 83.3777 31.2353C83.3777 31.3417 83.371 31.4746 83.3577 31.6342H75.3214V29.9192H81.6428L80.9847 30.8963C80.9847 29.6334 80.772 28.7294 80.3466 28.1843C79.9212 27.6393 79.3362 27.3668 78.5918 27.3668C77.834 27.3668 77.2225 27.6459 76.7572 28.2043C76.3052 28.7493 76.0792 29.6467 76.0792 30.8963C76.0792 32.0662 76.3052 32.9304 76.7572 33.4887C77.2225 34.0338 77.8606 34.3063 78.6715 34.3063C79.2033 34.3063 79.6619 34.1866 80.0475 33.9474C80.433 33.7081 80.7321 33.3159 80.9448 32.7708L83.1384 33.5086C82.8193 34.4126 82.261 35.1239 81.4633 35.6424C80.679 36.1475 79.7284 36.4001 78.6117 36.4001Z" fill="#032E1C"/>
<path d="M97.3498 36.1808V29.7796C97.3498 28.9953 97.157 28.4103 96.7715 28.0248C96.3992 27.626 95.9406 27.4266 95.3955 27.4266C94.8505 27.4266 94.3852 27.626 93.9996 28.0248C93.6274 28.4103 93.4413 28.9953 93.4413 29.7796H92.7035C92.7035 28.8623 92.8563 28.078 93.1621 27.4266C93.4812 26.7619 93.9066 26.2567 94.4383 25.911C94.9834 25.5654 95.6016 25.3926 96.2929 25.3926C97.2766 25.3926 98.0809 25.7382 98.7058 26.4295C99.3439 27.1208 99.6629 28.0647 99.6629 29.2612V36.1808H97.3498ZM84.8865 36.1808V25.6119H87.1997V36.1808H84.8865ZM91.1082 36.1808V29.7796C91.1082 28.9953 90.922 28.4103 90.5498 28.0248C90.1776 27.626 89.7123 27.4266 89.1539 27.4266C88.6089 27.4266 88.1436 27.626 87.758 28.0248C87.3858 28.4103 87.1997 28.9953 87.1997 29.7796H86.6014C86.6014 28.8623 86.7477 28.078 87.0401 27.4266C87.3459 26.7619 87.758 26.2567 88.2765 25.911C88.8083 25.5654 89.4132 25.3926 90.0912 25.3926C91.0749 25.3926 91.8792 25.7382 92.504 26.4295C93.1289 27.1208 93.4413 28.0647 93.4413 29.2612V36.1808H91.1082Z" fill="#032E1C"/>
</svg>
