<svg width="111" height="33" viewBox="0 0 111 33" fill="none" xmlns="http://www.w3.org/2000/svg">
<path d="M61.8384 14.8208V1.0614H63.9323V14.8208H61.8384ZM52.8649 14.8208V1.0614H54.9587V14.8208H52.8649ZM53.8619 8.71883V6.80447H62.9352V8.71883H53.8619Z" fill="#032E1C"/>
<path d="M65.8482 14.8208V4.25199H68.1614V14.8208H65.8482ZM67.0048 2.91593C66.6325 2.91593 66.3135 2.79629 66.0476 2.55699C65.795 2.3044 65.6687 1.98534 65.6687 1.59981C65.6687 1.18769 65.795 0.868634 66.0476 0.642634C66.3135 0.403339 66.6325 0.283691 67.0048 0.283691C67.377 0.283691 67.6894 0.403339 67.942 0.642634C68.2079 0.868634 68.3408 1.18769 68.3408 1.59981C68.3408 1.98534 68.2079 2.3044 67.942 2.55699C67.6894 2.79629 67.377 2.91593 67.0048 2.91593Z" fill="#032E1C"/>
<path d="M73.4514 15.0402C72.6404 15.0402 71.9226 14.8208 71.2977 14.3821C70.6729 13.9434 70.181 13.312 69.8221 12.4877C69.4764 11.6635 69.3036 10.6797 69.3036 9.53642C69.3036 8.37983 69.4764 7.39606 69.8221 6.58512C70.181 5.76088 70.6729 5.12941 71.2977 4.6907C71.9226 4.252 72.6404 4.03264 73.4514 4.03264C74.5548 4.03264 75.4389 4.43811 76.1036 5.24906C76.7683 6.06 77.1006 7.20994 77.1006 8.69889V10.374C77.1006 11.8629 76.7683 13.0128 76.1036 13.8238C75.4389 14.6347 74.5548 15.0402 73.4514 15.0402ZM74.1892 12.9863C74.9337 12.9863 75.5319 12.7071 75.9839 12.1487C76.4492 11.5904 76.6819 10.7196 76.6819 9.53642C76.6819 8.35324 76.4492 7.48247 75.9839 6.92412C75.5319 6.36576 74.9337 6.08659 74.1892 6.08659C73.4447 6.08659 72.8399 6.36576 72.3746 6.92412C71.9226 7.48247 71.6966 8.35324 71.6966 9.53642C71.6966 10.7196 71.9226 11.5904 72.3746 12.1487C72.8399 12.7071 73.4447 12.9863 74.1892 12.9863ZM76.5622 14.8208V12.2684L76.8813 9.53642L76.5622 6.84435V0.562869H78.8754V14.8208H76.5622Z" fill="#032E1C"/>
<path d="M84.1628 15.0402C83.3518 15.0402 82.634 14.8208 82.0091 14.3821C81.3843 13.9434 80.8924 13.312 80.5335 12.4877C80.1878 11.6635 80.015 10.6797 80.015 9.53642C80.015 8.37983 80.1878 7.39606 80.5335 6.58512C80.8924 5.76088 81.3843 5.12941 82.0091 4.6907C82.634 4.252 83.3518 4.03264 84.1628 4.03264C85.2662 4.03264 86.1503 4.43811 86.815 5.24906C87.4797 6.06 87.812 7.20994 87.812 8.69889V10.374C87.812 11.8629 87.4797 13.0128 86.815 13.8238C86.1503 14.6347 85.2662 15.0402 84.1628 15.0402ZM84.9006 12.9863C85.6451 12.9863 86.2433 12.7071 86.6953 12.1487C87.1606 11.5904 87.3933 10.7196 87.3933 9.53642C87.3933 8.35324 87.1606 7.48247 86.6953 6.92412C86.2433 6.36576 85.6451 6.08659 84.9006 6.08659C84.1561 6.08659 83.5513 6.36576 83.086 6.92412C82.634 7.48247 82.408 8.35324 82.408 9.53642C82.408 10.7196 82.634 11.5904 83.086 12.1487C83.5513 12.7071 84.1561 12.9863 84.9006 12.9863ZM87.2736 14.8208V12.2684L87.5927 9.53642L87.2736 6.84435V0.562869H89.5868V14.8208H87.2736Z" fill="#032E1C"/>
<path d="M95.632 15.0402C94.6482 15.0402 93.7841 14.8142 93.0396 14.3622C92.3084 13.9102 91.7368 13.2721 91.3246 12.4478C90.9125 11.6103 90.7065 10.6398 90.7065 9.53642C90.7065 8.39312 90.9125 7.40936 91.3246 6.58512C91.7501 5.76088 92.3284 5.12941 93.0595 4.6907C93.804 4.252 94.6548 4.03264 95.612 4.03264C96.5559 4.03264 97.3868 4.252 98.1047 4.6907C98.8225 5.12941 99.3809 5.76088 99.7797 6.58512C100.192 7.40936 100.398 8.39312 100.398 9.53642C100.398 9.65607 100.398 9.76907 100.398 9.87542C100.398 9.98177 100.391 10.1147 100.378 10.2742H92.3417V8.5593H98.663L98.005 9.53642C98.005 8.27348 97.7923 7.36947 97.3668 6.82441C96.9414 6.27935 96.3565 6.00682 95.612 6.00682C94.8542 6.00682 94.2427 6.286 93.7774 6.84435C93.3254 7.38941 93.0994 8.28677 93.0994 9.53642C93.0994 10.7063 93.3254 11.5704 93.7774 12.1288C94.2427 12.6738 94.8808 12.9464 95.6918 12.9464C96.2235 12.9464 96.6822 12.8267 97.0677 12.5874C97.4533 12.3481 97.7524 11.956 97.9651 11.4109L100.159 12.1487C99.8396 13.0527 99.2812 13.764 98.4836 14.2824C97.6992 14.7876 96.7487 15.0402 95.632 15.0402Z" fill="#032E1C"/>
<path d="M108.288 14.8208V8.69889C108.288 7.83477 108.069 7.18336 107.63 6.74465C107.204 6.29265 106.679 6.06665 106.055 6.06665C105.43 6.06665 104.898 6.29265 104.459 6.74465C104.034 7.18336 103.821 7.83477 103.821 8.69889H103.223C103.223 7.72841 103.382 6.89753 103.701 6.20623C104.021 5.50165 104.466 4.96323 105.038 4.591C105.609 4.21876 106.254 4.03264 106.972 4.03264C107.69 4.03264 108.321 4.19882 108.866 4.53117C109.411 4.86353 109.837 5.34212 110.142 5.96694C110.448 6.59177 110.601 7.32959 110.601 8.18042V14.8208H108.288ZM101.508 14.8208V4.25199H103.821V14.8208H101.508Z" fill="#032E1C"/>
<path d="M58.0496 31.6639C56.9329 31.6639 55.9358 31.3781 55.0584 30.8064C54.181 30.2348 53.4897 29.4238 52.9845 28.3736C52.4926 27.31 52.2467 26.0471 52.2467 24.5847C52.2467 23.1091 52.5126 21.8461 53.0444 20.7959C53.5894 19.7324 54.3405 18.9214 55.2977 18.3631C56.2682 17.7914 57.3849 17.5056 58.6478 17.5056C59.5917 17.5056 60.4359 17.6718 61.1804 18.0041C61.9381 18.3232 62.5763 18.7951 63.0947 19.42C63.6265 20.0315 63.9987 20.7693 64.2114 21.6334L62.1376 22.1918C61.9381 21.3011 61.5327 20.6231 60.9211 20.1578C60.3229 19.6792 59.5452 19.4399 58.588 19.4399C57.3384 19.4399 56.328 19.872 55.5569 20.7361C54.7992 21.5869 54.4203 22.8698 54.4203 24.5847C54.4203 26.2332 54.7792 27.5028 55.4971 28.3935C56.215 29.2842 57.1788 29.7296 58.3886 29.7296C59.1863 29.7296 59.8709 29.5634 60.4425 29.231C61.0142 28.8987 61.4463 28.4533 61.7387 27.895C62.0445 27.3233 62.1974 26.6852 62.1974 25.9806H62.995C62.995 26.9777 62.8089 27.9083 62.4367 28.7724C62.0644 29.6365 61.5061 30.3345 60.7616 30.8662C60.0304 31.398 59.1264 31.6639 58.0496 31.6639ZM62.3768 31.4645L62.1974 27.197V24.485H64.2114V31.4645H62.3768ZM58.3288 26.2V24.485H63.2144V26.2H58.3288Z" fill="#032E1C"/>
<path d="M70.6345 31.6838C69.6508 31.6838 68.7867 31.4578 68.0422 31.0058C67.311 30.5538 66.7394 29.9157 66.3272 29.0915C65.9151 28.2539 65.7091 27.2835 65.7091 26.18C65.7091 25.0367 65.9151 24.053 66.3272 23.2287C66.7526 22.4045 67.3309 21.773 68.0621 21.3343C68.8066 20.8956 69.6574 20.6763 70.6146 20.6763C71.5585 20.6763 72.3894 20.8956 73.1073 21.3343C73.8251 21.773 74.3835 22.4045 74.7823 23.2287C75.1944 24.053 75.4005 25.0367 75.4005 26.18C75.4005 26.2997 75.4005 26.4127 75.4005 26.519C75.4005 26.6254 75.3938 26.7583 75.3806 26.9179H67.3442V25.2029H73.6656L73.0075 26.18C73.0075 24.9171 72.7948 24.0131 72.3694 23.468C71.944 22.923 71.3591 22.6504 70.6146 22.6504C69.8568 22.6504 69.2453 22.9296 68.78 23.488C68.328 24.033 68.102 24.9304 68.102 26.18C68.102 27.3499 68.328 28.214 68.78 28.7724C69.2453 29.3175 69.8834 29.59 70.6944 29.59C71.2261 29.59 71.6848 29.4703 72.0703 29.231C72.4558 28.9918 72.755 28.5996 72.9677 28.0545L75.1612 28.7923C74.8421 29.6963 74.2838 30.4076 73.4861 30.9261C72.7018 31.4312 71.7512 31.6838 70.6345 31.6838Z" fill="#032E1C"/>
<path d="M89.3726 31.4645V25.0633C89.3726 24.279 89.1798 23.694 88.7943 23.3085C88.4221 22.9097 87.9634 22.7103 87.4184 22.7103C86.8733 22.7103 86.408 22.9097 86.0225 23.3085C85.6502 23.694 85.4641 24.279 85.4641 25.0633H84.7263C84.7263 24.146 84.8792 23.3617 85.1849 22.7103C85.504 22.0456 85.9294 21.5404 86.4612 21.1947C87.0062 20.8491 87.6244 20.6763 88.3157 20.6763C89.2995 20.6763 90.1038 21.0219 90.7286 21.7132C91.3667 22.4045 91.6858 23.3484 91.6858 24.5449V31.4645H89.3726ZM76.9093 31.4645V20.8956H79.2225V31.4645H76.9093ZM83.131 31.4645V25.0633C83.131 24.279 82.9449 23.694 82.5726 23.3085C82.2004 22.9097 81.7351 22.7103 81.1767 22.7103C80.6317 22.7103 80.1664 22.9097 79.7809 23.3085C79.4086 23.694 79.2225 24.279 79.2225 25.0633H78.6243C78.6243 24.146 78.7705 23.3617 79.063 22.7103C79.3687 22.0456 79.7809 21.5404 80.2993 21.1947C80.8311 20.8491 81.436 20.6763 82.114 20.6763C83.0978 20.6763 83.902 21.0219 84.5269 21.7132C85.1517 22.4045 85.4641 23.3484 85.4641 24.5449V31.4645H83.131Z" fill="#032E1C"/>
<path d="M9.8645 9.64099C15.0324 9.64099 19.0186 14.592 19.0188 20.4252C19.0188 26.2585 15.0325 31.2094 9.8645 31.2094C4.69656 31.2093 0.710205 26.2584 0.710205 20.4252C0.710395 14.5921 4.69669 9.64107 9.8645 9.64099Z" fill="#D7F4B8" stroke="#032E1C" stroke-width="1.42118"/>
<path d="M32.2576 9.64099C37.4254 9.64099 41.4117 14.592 41.4119 20.4252C41.4119 26.2585 37.4256 31.2094 32.2576 31.2094C27.0896 31.2093 23.1033 26.2584 23.1033 20.4252C23.1035 14.5921 27.0898 9.64107 32.2576 9.64099Z" fill="#D7F4B8" stroke="#032E1C" stroke-width="1.42118"/>
<path d="M4.3989 14.4886C6.02446 14.1782 7.64285 14.7622 8.89376 15.8672C10.1448 16.9723 11.0258 18.5968 11.1774 20.3604C11.4811 23.8949 9.3925 26.9374 6.53094 27.1753C4.42499 27.1751 3.06744 26.5673 2.19699 25.5247C1.32524 24.4805 0.936009 22.9939 0.783504 21.2232C0.783504 18.8596 0.953885 17.343 1.48959 16.334C2.02262 15.3304 2.92086 14.8218 4.3989 14.4886Z" fill="#032E1C" stroke="#032E1C" stroke-width="0.0835988"/>
<path d="M27.233 14.4895C28.8586 14.1791 30.4768 14.7622 31.7277 15.8672C32.9788 16.9723 33.8598 18.5968 34.0114 20.3604C34.3151 23.8949 32.2265 26.9374 29.3649 27.1753C27.259 27.1751 25.9014 26.5673 25.031 25.5247C24.1586 24.4798 23.7694 22.9916 23.6172 21.2193C23.465 19.4486 23.6544 17.8233 24.2387 16.6125C24.822 15.4038 25.7983 14.6081 27.2281 14.4899L27.233 14.4895Z" fill="#032E1C" stroke="#032E1C" stroke-width="0.0835988"/>
<path d="M6.35352 4.08196C6.35352 4.08196 10.1589 1.90221 12.8217 2.40925C15.4844 2.9163 18.5171 6.17193 18.5171 6.17193" stroke="#032E1C" stroke-width="1.82795" stroke-linecap="round"/>
<path d="M28.5112 4.07561C28.5112 4.07561 32.3167 1.89586 34.9794 2.40291C37.6421 2.90995 40.6749 6.16558 40.6749 6.16558" stroke="#032E1C" stroke-width="1.82795" stroke-linecap="round"/>
</svg>
