<svg width="113" height="87" viewBox="0 0 113 87" fill="none" xmlns="http://www.w3.org/2000/svg">
<path d="M26.084 25.4933C39.7485 25.4936 50.2879 38.5842 50.2881 54.0079C50.2881 69.4318 39.7486 82.5233 26.084 82.5236C12.4191 82.5236 1.87891 69.432 1.87891 54.0079C1.87907 38.584 12.4192 25.4933 26.084 25.4933Z" fill="white" stroke="#032E1C" stroke-width="3.75779"/>
<path d="M85.2942 25.4933C98.9587 25.4936 109.498 38.5842 109.498 54.0079C109.498 69.4318 98.9588 82.5233 85.2942 82.5236C71.6293 82.5236 61.0891 69.432 61.0891 54.0079C61.0893 38.584 71.6294 25.4933 85.2942 25.4933Z" fill="white" stroke="#032E1C" stroke-width="3.75779"/>
<path d="M11.6306 38.3124C15.9293 37.4913 20.2076 39.0344 23.5155 41.9563C26.8234 44.8784 29.1529 49.173 29.5537 53.8362C30.3444 63.0383 25.0035 70.9813 17.6163 71.8238L17.2634 71.8578C11.6984 71.8561 8.11048 70.2479 5.8096 67.4924C3.50425 64.7313 2.47432 60.7995 2.07106 56.1172C2.07106 49.8667 2.52298 45.8569 3.93985 43.189C5.34901 40.5357 7.72266 39.1926 11.6296 38.3116L11.6306 38.3124Z" fill="#032E1C" stroke="#032E1C" stroke-width="0.221047"/>
<path d="M72.0069 38.3124C76.3055 37.4913 80.5838 39.0344 83.8917 41.9563C87.1997 44.8784 89.5291 49.173 89.9299 53.8362C90.7206 63.0383 85.3797 70.9813 77.9925 71.8238L77.6396 71.8578C72.0746 71.8561 68.4867 70.2479 66.1858 67.4924C63.8789 64.7294 62.8491 60.7939 62.4464 56.1075C62.0442 51.4254 62.5444 47.1275 64.0893 43.926C65.6316 40.73 68.2144 38.6259 71.9952 38.3134L71.9953 38.3144L72.0069 38.3124Z" fill="#032E1C" stroke="#032E1C" stroke-width="0.221047"/>
<path d="M16.7996 10.7936C16.7996 10.7936 26.8616 5.03002 33.9022 6.37071C40.9428 7.7114 48.9618 16.3197 48.9618 16.3197" stroke="#032E1C" stroke-width="4.83333" stroke-linecap="round"/>
<path d="M75.3877 10.7768C75.3877 10.7768 85.4497 5.01324 92.4904 6.35392C99.531 7.69461 107.55 16.3029 107.55 16.3029" stroke="#032E1C" stroke-width="4.83333" stroke-linecap="round"/>
</svg>
