<svg width="30" height="30" viewBox="0 0 30 30" fill="none" xmlns="http://www.w3.org/2000/svg">
<path d="M25.1953 25.7637C25.1146 25.9107 24.9959 26.0334 24.8516 26.1189C24.7073 26.2045 24.5427 26.2497 24.375 26.25H18.75C18.5922 26.25 18.437 26.2101 18.2987 26.1341C18.1604 26.0581 18.0436 25.9484 17.959 25.8152L13.214 18.3586L6.31872 25.943C6.15063 26.1235 5.91814 26.2306 5.67166 26.2409C5.42518 26.2512 5.18458 26.1639 5.00201 25.998C4.81945 25.8321 4.70963 25.6009 4.69638 25.3545C4.68313 25.1082 4.76751 24.8666 4.93122 24.682L12.1699 16.7133L4.83395 5.19141C4.7436 5.04966 4.69302 4.88623 4.68752 4.71823C4.68201 4.55023 4.72177 4.38383 4.80264 4.23647C4.88351 4.08911 5.00251 3.9662 5.14718 3.88062C5.29185 3.79503 5.45688 3.74992 5.62497 3.75H11.25C11.4078 3.75005 11.563 3.78992 11.7012 3.86592C11.8395 3.94192 11.9564 4.05159 12.041 4.18477L16.7859 11.6414L23.6812 4.05703C23.8493 3.87647 24.0818 3.76943 24.3283 3.75914C24.5747 3.74884 24.8154 3.83611 24.9979 4.00202C25.1805 4.16793 25.2903 4.39912 25.3036 4.64546C25.3168 4.89179 25.2324 5.13343 25.0687 5.31797L17.83 13.2809L25.166 24.8098C25.2558 24.9516 25.3059 25.1149 25.3111 25.2827C25.3162 25.4505 25.2763 25.6166 25.1953 25.7637Z" fill="#032E1C"/>
</svg>
