<svg width="24" height="24" viewBox="0 0 24 24" fill="none" xmlns="http://www.w3.org/2000/svg">
<path d="M7.75082 2.5C7.75082 2.08579 7.41503 1.75 7.00082 1.75C6.58661 1.75 6.25082 2.08579 6.25082 2.5V4.07926C4.81149 4.19451 3.86659 4.47737 3.17239 5.17157C2.47819 5.86577 2.19533 6.81067 2.08008 8.25H21.9215C21.8063 6.81067 21.5234 5.86577 20.8292 5.17157C20.135 4.47737 19.1901 4.19451 17.7508 4.07926V2.5C17.7508 2.08579 17.415 1.75 17.0008 1.75C16.5866 1.75 16.2508 2.08579 16.2508 2.5V4.0129C15.5855 4 14.8398 4 14.0008 4H10.0008C9.16179 4 8.41609 4 7.75082 4.0129V2.5Z" fill="#1FCB60"/>
<path fill-rule="evenodd" clip-rule="evenodd" d="M22 12V14C22 17.7712 22 19.6569 20.8284 20.8284C19.6569 22 17.7712 22 14 22H10C6.22876 22 4.34315 22 3.17157 20.8284C2 19.6569 2 17.7712 2 14V12C2 11.161 2 10.4153 2.0129 9.75H21.9871C22 10.4153 22 11.161 22 12ZM16.5 18C17.3284 18 18 17.3284 18 16.5C18 15.6716 17.3284 15 16.5 15C15.6716 15 15 15.6716 15 16.5C15 17.3284 15.6716 18 16.5 18Z" fill="#1FCB60"/>
</svg>
