<svg width="69" height="69" viewBox="0 0 69 69" fill="none" xmlns="http://www.w3.org/2000/svg">
<rect width="69" height="69" rx="12" fill="#E9F9D7"/>
<path d="M51 17H19C16.7909 17 15 18.7909 15 21V52C15 54.2091 16.7909 56 19 56H51C53.2091 56 55 54.2091 55 52V21C55 18.7909 53.2091 17 51 17Z" fill="white"/>
<path d="M54 53.0004H22C19.791 53.0004 18 51.2094 18 49.0004V18.0004C18 17.6924 18.042 17.3964 18.108 17.1084C16.33 17.5144 15 19.0994 15 21.0004V52.0004C15 54.2094 16.791 56.0004 19 56.0004H51C52.901 56.0004 54.486 54.6704 54.892 52.8924C54.604 52.9584 54.308 53.0004 54 53.0004Z" fill="#1FCB60"/>
<path d="M19 17H51C53.209 17 55 18.791 55 21V26H15V21C15 18.791 16.791 17 19 17Z" fill="#64E47E"/>
<path d="M18 18.0004C18 17.6924 18.042 17.3964 18.108 17.1084C16.33 17.5144 15 19.0994 15 21.0004V26.0004H18V18.0004Z" fill="#1FCB60"/>
<path d="M25 16C25 14.8954 24.1046 14 23 14C21.8954 14 21 14.8954 21 16V18C21 19.1046 21.8954 20 23 20C24.1046 20 25 19.1046 25 18V16Z" fill="#032E1C"/>
<path d="M49 16C49 14.8954 48.1046 14 47 14C45.8954 14 45 14.8954 45 16V18C45 19.1046 45.8954 20 47 20C48.1046 20 49 19.1046 49 18V16Z" fill="#032E1C"/>
<path d="M37 16C37 14.8954 36.1046 14 35 14C33.8954 14 33 14.8954 33 16V18C33 19.1046 33.8954 20 35 20C36.1046 20 37 19.1046 37 18V16Z" fill="#032E1C"/>
<path d="M25 31H23C21.8954 31 21 31.8954 21 33V35C21 36.1046 21.8954 37 23 37H25C26.1046 37 27 36.1046 27 35V33C27 31.8954 26.1046 31 25 31Z" fill="#64E47E"/>
<path d="M36 31H34C32.8954 31 32 31.8954 32 33V35C32 36.1046 32.8954 37 34 37H36C37.1046 37 38 36.1046 38 35V33C38 31.8954 37.1046 31 36 31Z" fill="#64E47E"/>
<path d="M47 31H45C43.8954 31 43 31.8954 43 33V35C43 36.1046 43.8954 37 45 37H47C48.1046 37 49 36.1046 49 35V33C49 31.8954 48.1046 31 47 31Z" fill="#64E47E"/>
<path d="M25 43H23C21.8954 43 21 43.8954 21 45V47C21 48.1046 21.8954 49 23 49H25C26.1046 49 27 48.1046 27 47V45C27 43.8954 26.1046 43 25 43Z" fill="#64E47E"/>
<path d="M36 43H34C32.8954 43 32 43.8954 32 45V47C32 48.1046 32.8954 49 34 49H36C37.1046 49 38 48.1046 38 47V45C38 43.8954 37.1046 43 36 43Z" fill="#64E47E"/>
<path d="M47 43H45C43.8954 43 43 43.8954 43 45V47C43 48.1046 43.8954 49 45 49H47C48.1046 49 49 48.1046 49 47V45C49 43.8954 48.1046 43 47 43Z" fill="#64E47E"/>
</svg>
