<svg width="24" height="24" viewBox="0 0 24 24" fill="none" xmlns="http://www.w3.org/2000/svg">
<path d="M17.2905 11.9685C17.2905 12.7071 16.6984 13.306 15.9679 13.306C15.2374 13.306 14.6453 12.7071 14.6453 11.9685C14.6453 11.2298 15.2374 10.6309 15.9679 10.6309C16.6984 10.6309 17.2905 11.2298 17.2905 11.9685Z" fill="#1FCB60"/>
<path fill-rule="evenodd" clip-rule="evenodd" d="M18.1316 7.40774C17.2832 7.28707 16.1897 7.28709 14.8267 7.28711H9.17326C7.81031 7.28709 6.7168 7.28707 5.86839 7.40774C4.99062 7.53258 4.25955 7.80047 3.71603 8.42826C3.17252 9.05604 3.00655 9.82426 3.00019 10.7206C2.99404 11.5869 3.13858 12.6831 3.31873 14.0493L3.68419 16.8211C3.825 17.8892 3.93897 18.7536 4.11616 19.4306C4.3006 20.1353 4.57289 20.7194 5.08383 21.1718C5.59477 21.6242 6.20337 21.8198 6.91841 21.9116C7.60534 21.9997 8.46777 21.9997 9.53332 21.9997H14.4667C15.5322 21.9997 16.3947 21.9997 17.0816 21.9116C17.7966 21.8198 18.4052 21.6242 18.9162 21.1718C19.4271 20.7194 19.6994 20.1353 19.8838 19.4306C20.061 18.7536 20.175 17.8891 20.3158 16.821L20.6813 14.0493C20.8614 12.6831 21.006 11.5869 20.9998 10.7206C20.9934 9.82426 20.8275 9.05604 20.284 8.42826C19.7404 7.80047 19.0094 7.53258 18.1316 7.40774ZM6.05259 8.73222C5.32568 8.83561 4.95802 9.02417 4.71116 9.30931C4.4643 9.59445 4.32805 9.98791 4.32278 10.7302C4.31738 11.4915 4.44802 12.4942 4.63662 13.9246L4.68663 14.3039L5.05822 14.0317C6.0171 13.3294 7.43388 13.364 8.34576 14.1272L11.7301 16.96C12.0499 17.2277 12.6011 17.2778 12.9989 17.0438L13.2341 16.9054C14.3594 16.2435 15.8676 16.3132 16.9059 17.0955L18.7378 18.4755C18.8281 17.9799 18.909 17.3706 19.0107 16.5996L19.3634 13.9246C19.552 12.4942 19.6826 11.4915 19.6772 10.7302C19.6719 9.98791 19.5357 9.59445 19.2888 9.30931C19.042 9.02417 18.6743 8.83561 17.9474 8.73222C17.2019 8.62618 16.2018 8.62462 14.7748 8.62462H9.22521C7.79821 8.62462 6.7981 8.62618 6.05259 8.73222Z" fill="#1FCB60"/>
<path d="M8.85887 2.00001H15.141C15.3502 1.99995 15.5106 1.99991 15.6508 2.01515C16.6479 2.12351 17.4639 2.78957 17.81 3.68676H6.18982C6.53589 2.78957 7.35196 2.12351 8.349 2.01515C8.48923 1.99991 8.64964 1.99995 8.85887 2.00001Z" fill="#1FCB60"/>
<path d="M6.87946 4.5C5.62789 4.5 4.60166 5.33974 4.25918 6.45377C4.25204 6.477 4.2452 6.50034 4.23865 6.5238C4.59699 6.40323 4.96992 6.32446 5.34744 6.27068C6.31977 6.13218 7.54858 6.13225 8.97601 6.13234H9.08261H15.1789C16.6063 6.13225 17.8351 6.13218 18.8074 6.27068C19.185 6.32446 19.5579 6.40323 19.9162 6.5238C19.9097 6.50034 19.9028 6.477 19.8957 6.45377C19.5532 5.33974 18.527 4.5 17.2754 4.5H6.87946Z" fill="#1FCB60"/>
</svg>
