<svg width="20" height="20" viewBox="0 0 20 20" fill="none" xmlns="http://www.w3.org/2000/svg">
<path d="M2.03031 4.28908C1.66675 4.70291 1.66675 5.41243 1.66675 6.83148V14.6592C1.66675 15.6642 1.66675 16.1667 1.92891 16.545C2.19107 16.9233 2.64942 17.0822 3.56611 17.4L4.64461 17.7739C5.22871 17.9764 5.67817 18.1322 6.05536 18.2325C6.30141 18.298 6.52786 18.1049 6.52786 17.8503V5.22512C6.52786 5.01768 6.37478 4.84263 6.17372 4.79163C5.84936 4.70935 5.45947 4.57418 4.9251 4.38892C3.63071 3.94018 2.98353 3.71581 2.4911 3.94366C2.31626 4.02455 2.15938 4.14215 2.03031 4.28908Z" fill="#032E1C"/>
<path d="M10.5171 2.901L9.23708 3.7885C8.774 4.10956 8.43466 4.34486 8.14487 4.51262C8.00754 4.59213 7.91675 4.73596 7.91675 4.89465V17.4338C7.91675 17.7426 8.23673 17.9354 8.49691 17.7689C8.77608 17.5904 9.09583 17.3687 9.48308 17.1001L10.7631 16.2126C11.2261 15.8916 11.5655 15.6563 11.8552 15.4885C11.9927 15.409 12.0834 15.2652 12.0834 15.1065V2.56739C12.0834 2.25857 11.7634 2.06575 11.5032 2.23217C11.2241 2.41079 10.9043 2.63248 10.5171 2.901Z" fill="#032E1C"/>
<path d="M16.4339 2.60029L15.3554 2.2264C14.7713 2.02387 14.3218 1.86808 13.9447 1.76774C13.6986 1.70229 13.4722 1.89543 13.4722 2.15005V14.7752C13.4722 14.9826 13.6253 15.1577 13.8263 15.2087C14.1507 15.2909 14.5406 15.4261 15.0749 15.6113C16.3693 16.0601 17.0165 16.2845 17.5089 16.0567C17.6838 15.9758 17.8406 15.8582 17.9697 15.7112C18.3333 15.2974 18.3333 14.5878 18.3333 13.1688V5.34108C18.3333 4.3361 18.3333 3.83361 18.0711 3.4553C17.8089 3.077 17.3506 2.9181 16.4339 2.60029Z" fill="#032E1C"/>
</svg>
