<svg width="24" height="24" viewBox="0 0 24 24" fill="none" xmlns="http://www.w3.org/2000/svg">
<path d="M10 10.75C12.2091 10.75 14 8.95914 14 6.75C14 4.54086 12.2091 2.75 10 2.75C7.79086 2.75 6 4.54086 6 6.75C6 8.95914 7.79086 10.75 10 10.75Z" fill="#7C8E7B"/>
<path d="M10 21.75C13.866 21.75 17 19.9591 17 17.75C17 15.5409 13.866 13.75 10 13.75C6.13401 13.75 3 15.5409 3 17.75C3 19.9591 6.13401 21.75 10 21.75Z" fill="#7C8E7B"/>
<path fill-rule="evenodd" clip-rule="evenodd" d="M18.357 2.36424C18.5702 2.00906 19.0309 1.89388 19.386 2.10699L19.0002 2.75011C19.386 2.10699 19.3857 2.10679 19.386 2.10699L19.3874 2.10783L19.389 2.10878L19.3927 2.11103L19.4023 2.11695C19.4096 2.12153 19.4189 2.12737 19.4299 2.13448C19.4519 2.14871 19.481 2.16809 19.5162 2.19272C19.5865 2.24194 19.6815 2.31244 19.7928 2.4052C20.0149 2.59029 20.3054 2.86678 20.5946 3.24283C21.1775 4.00057 21.7502 5.15746 21.7502 6.75011C21.7502 8.34277 21.1775 9.49966 20.5946 10.2574C20.3054 10.6334 20.0149 10.9099 19.7928 11.095C19.6815 11.1878 19.5865 11.2583 19.5162 11.3075C19.481 11.3321 19.4519 11.3515 19.4299 11.3657C19.4189 11.3729 19.4096 11.3787 19.4023 11.3833L19.3927 11.3892L19.389 11.3914L19.3874 11.3924C19.3871 11.3926 19.386 11.3932 19.0002 10.7501L19.386 11.3932C19.0309 11.6063 18.5702 11.4912 18.357 11.136C18.1448 10.7823 18.2581 10.324 18.6098 10.1097L18.6154 10.1062C18.6227 10.1014 18.6365 10.0923 18.656 10.0787C18.6951 10.0513 18.7563 10.0062 18.8325 9.9427C18.9854 9.81529 19.195 9.61678 19.4057 9.34283C19.8228 8.80057 20.2502 7.95746 20.2502 6.75011C20.2502 5.54277 19.8228 4.69966 19.4057 4.1574C19.195 3.88345 18.9854 3.68494 18.8325 3.55753C18.7563 3.49403 18.6951 3.44891 18.656 3.42157C18.6365 3.40792 18.6227 3.39878 18.6154 3.39406L18.6098 3.39053C18.2581 3.17625 18.1448 2.71793 18.357 2.36424Z" fill="#7C8E7B"/>
<path fill-rule="evenodd" clip-rule="evenodd" d="M16.3293 4.41475C16.5146 4.04427 16.9651 3.8941 17.3356 4.07934L17.0002 4.75016C17.3356 4.07934 17.3352 4.07914 17.3356 4.07934L17.3372 4.08016L17.3389 4.08102L17.3426 4.08292L17.3512 4.08737L17.3728 4.09898C17.3891 4.10794 17.4091 4.11939 17.4324 4.13349C17.4787 4.16164 17.5383 4.20063 17.6064 4.25173C17.7423 4.35368 17.9153 4.50595 18.0858 4.71914C18.4345 5.15504 18.7502 5.81797 18.7502 6.75016C18.7502 7.68235 18.4345 8.34529 18.0858 8.78118C17.9153 8.99438 17.7423 9.14665 17.6064 9.2486C17.5383 9.2997 17.4787 9.33868 17.4324 9.36684C17.4091 9.38094 17.3891 9.39239 17.3728 9.40134L17.3512 9.41295L17.3426 9.41741L17.3389 9.4193L17.3372 9.42017C17.3368 9.42037 17.3356 9.42098 17.0064 8.76271L17.3356 9.42098C16.9651 9.60623 16.5146 9.45606 16.3293 9.08557C16.1464 8.7197 16.2906 8.27579 16.651 8.08639C16.6518 8.08595 16.6527 8.08538 16.6539 8.08466C16.6622 8.07961 16.6808 8.06781 16.7064 8.0486C16.758 8.00993 16.8351 7.94345 16.9145 7.84414C17.0658 7.65504 17.2502 7.31797 17.2502 6.75016C17.2502 6.18235 17.0658 5.84529 16.9145 5.65618C16.8351 5.55688 16.758 5.4904 16.7064 5.45173C16.6808 5.43251 16.6622 5.42071 16.6539 5.41567C16.6527 5.41495 16.6518 5.41437 16.651 5.41394C16.2906 5.22454 16.1464 4.78062 16.3293 4.41475Z" fill="#7C8E7B"/>
</svg>
