<svg width="15" height="17" viewBox="0 0 15 17" fill="none" xmlns="http://www.w3.org/2000/svg">
<path fill-rule="evenodd" clip-rule="evenodd" d="M13.1243 6.42008V5.83333C13.1243 2.61168 10.6062 0 7.5 0C4.3938 0 1.87573 2.61168 1.87573 5.83333V6.42008C1.87573 7.12425 1.67477 7.81267 1.29817 8.3985L0.375301 9.83433C-0.467649 11.1458 0.175875 12.9283 1.64197 13.343C5.47728 14.4278 9.52275 14.4278 13.358 13.343C14.8242 12.9283 15.4677 11.1458 14.6247 9.83433L13.7018 8.3985C13.3252 7.81267 13.1243 7.12425 13.1243 6.42008ZM7.5 2.70833C7.84517 2.70833 8.125 2.98816 8.125 3.33333V6.66667C8.125 7.01183 7.84517 7.29167 7.5 7.29167C7.15483 7.29167 6.875 7.01183 6.875 6.66667V3.33333C6.875 2.98816 7.15483 2.70833 7.5 2.70833Z" fill="black"/>
<path d="M4.45972 15.1562C5.16063 16.0473 6.26172 16.6214 7.49989 16.6214C8.73806 16.6214 9.83914 16.0473 10.5401 15.1562C8.52189 15.4298 6.47789 15.4298 4.45972 15.1562Z" fill="black"/>
</svg>
